<svg xmlns="http://www.w3.org/2000/svg" x="0px" y="0px"
width="35" height="35"
viewBox="0 0 172 172"
style=" fill:#000000;"><g fill="none" fill-rule="nonzero" stroke="none" stroke-width="1" stroke-linecap="butt" stroke-linejoin="miter" stroke-miterlimit="10" stroke-dasharray="" stroke-dashoffset="0" font-family="none" font-weight="none" font-size="none" text-anchor="none" style="mix-blend-mode: normal"><path d="M0,172v-172h172v172z" fill="none"></path><g fill="#ffffff"><path d="M42.0755,47.50067l-38.49217,38.49217l0.00717,0.00717l-0.00717,0.00717l38.49217,38.49217l11.6745,-11.6745l-26.82483,-26.82483l26.82483,-26.82483z"></path><path d="M168.41667,85.99283l-38.49217,-38.49217l-11.6745,11.6745l26.82483,26.82483l-26.82483,26.82483l11.6745,11.6745l38.49217,-38.49217l-0.00717,-0.00717z"></path><path d="M63.22075,150.5h17.91667l27.64183,-129h-17.91667z"></path><g><rect x="-16.26305" y="17.67918" transform="rotate(-45.001) scale(3.58333,3.58333)" width="4.605" height="4.605"></rect></g><g><rect x="11.65687" y="45.59907" transform="rotate(-45.001) scale(3.58333,3.58333)" width="4.605" height="4.605"></rect></g></g></g></svg>