<svg xmlns="http://www.w3.org/2000/svg" x="0px" y="0px"
width="35" height="35"
viewBox="0 0 172 172"
style=" fill:#000000;"><g fill="none" fill-rule="nonzero" stroke="none" stroke-width="1" stroke-linecap="butt" stroke-linejoin="miter" stroke-miterlimit="10" stroke-dasharray="" stroke-dashoffset="0" font-family="none" font-weight="none" font-size="none" text-anchor="none" style="mix-blend-mode: normal"><path d="M0,172v-172h172v172z" fill="none"></path><g fill="#ffffff"><path d="M151.08767,61.36817l-40.45583,-40.45942c-13.54858,-13.54858 -35.71508,-13.54858 -49.26367,0l-40.45583,40.45942c-13.54858,13.54858 -13.54858,35.71508 0,49.26367l40.45942,40.45942c13.54858,13.54858 35.71508,13.54858 49.26367,0l40.45942,-40.45942c13.54142,-13.54858 13.54142,-35.71508 -0.00717,-49.26367zM86,111.08333c-13.85317,0 -25.08333,-11.23017 -25.08333,-25.08333c0,-13.85317 11.23017,-25.08333 25.08333,-25.08333c13.85317,0 25.08333,11.23017 25.08333,25.08333c0,13.85317 -11.23017,25.08333 -25.08333,25.08333z"></path></g></g></svg>