<svg xmlns="http://www.w3.org/2000/svg" x="0px" y="0px"
width="35" height="35"
viewBox="0 0 172 172"
style=" fill:#000000;"><g fill="none" fill-rule="nonzero" stroke="none" stroke-width="1" stroke-linecap="butt" stroke-linejoin="miter" stroke-miterlimit="10" stroke-dasharray="" stroke-dashoffset="0" font-family="none" font-weight="none" font-size="none" text-anchor="none" style="mix-blend-mode: normal"><path d="M0,172v-172h172v172z" fill="none"></path><g fill="#ffffff"><path d="M137.6,22.93333h-103.2c-6.33533,0 -11.46667,5.13133 -11.46667,11.46667v103.2c0,6.33533 5.13133,11.46667 11.46667,11.46667h103.2c6.33533,0 11.46667,-5.13133 11.46667,-11.46667v-103.2c0,-6.33533 -5.13133,-11.46667 -11.46667,-11.46667zM62.80293,126.13333h-16.91333v-54.4208h16.91333zM54.17427,63.9324c-5.4524,0 -9.86133,-4.4204 -9.86133,-9.86133c0,-5.44093 4.41467,-9.8556 9.86133,-9.8556c5.4352,0 9.8556,4.4204 9.8556,9.8556c0,5.44093 -4.4204,9.86133 -9.8556,9.86133zM126.15627,126.13333h-16.90187v-26.46507c0,-6.3124 -0.11467,-14.4308 -8.7892,-14.4308c-8.80067,0 -10.15373,6.87427 -10.15373,13.97213v26.92373h-16.90187v-54.4208h16.22533v7.43613h0.22933c2.25893,-4.27707 7.7744,-8.7892 16.00173,-8.7892c17.12547,0 20.29027,11.27173 20.29027,25.92613z"></path></g></g></svg>